<svg xmlns="http://www.w3.org/2000/svg" width="280" height="100" viewBox="0 0 280 100">
  <title>IWTT Guided Search Icons</title>

  <g id="pollutant">
    <!-- <rect x="190" y="10" width="80" height="80"/> -->
    <path fill="#005a96" d="M236.3,37.7a1.22,1.22,0,0,1,1.22,1.22,1.42,1.42,0,0,1-.92,1.24,2.7,2.7,0,0,0-1.78,2.54v8.51a2.7,2.7,0,0,0,.22,1.06l.41,1c.7,1.6,2,4.43,3.39,7.64,2.38,5.36,5.35,12,6.9,15.64a7.14,7.14,0,0,1,.7,2.94,2.82,2.82,0,0,1-2.36,2.84H215.92a2.82,2.82,0,0,1-2.36-2.84,7.24,7.24,0,0,1,.73-3c1.53-3.56,4.49-10.23,6.88-15.59,1.43-3.21,2.69-6,3.39-7.66l.41-.95a2.7,2.7,0,0,0,.22-1.06V42.7a2.7,2.7,0,0,0-1.78-2.54,1.42,1.42,0,0,1-.92-1.24,1.22,1.22,0,0,1,1.22-1.22H236.3m0-2.7H223.7a3.92,3.92,0,0,0-3.92,3.92,4.12,4.12,0,0,0,2.7,3.78v8.51l-.41.95c-1.89,4.32-7.84,17.57-10.27,23.24a9.74,9.74,0,0,0-.95,4.05A5.54,5.54,0,0,0,215.73,85h28.54a5.54,5.54,0,0,0,4.86-5.54,9.74,9.74,0,0,0-.95-4.05c-2.43-5.68-8.38-18.92-10.27-23.24l-.41-.95V42.7a4.12,4.12,0,0,0,2.7-3.78A3.92,3.92,0,0,0,236.3,35Zm-7.86-7.16a3.24,3.24,0,1,1,3.24,3.24A3.25,3.25,0,0,1,228.43,27.84Zm-3.78-4a1.3,1.3,0,1,0-1.3-1.3A1.3,1.3,0,0,0,224.65,23.86Zm6.76-4A2.43,2.43,0,1,0,229,17.43,2.39,2.39,0,0,0,231.41,19.86Zm.41,28.3A2.11,2.11,0,1,0,229.05,47,2,2,0,0,0,231.81,48.16Zm-3,7.59a1.3,1.3,0,1,0-1.3-1.3A1.3,1.3,0,0,0,228.84,55.76ZM230,62.27a11.36,11.36,0,0,1-4.55.77h-2.82l-.15.45c-1.93,4.46-4.16,9.36-5.35,12.19-.45,1-.89,2.53-.3,3.42a2.3,2.3,0,0,0,1.64,1h23.07a2.3,2.3,0,0,0,1.64-1c.59-.89.15-2.38-.3-3.42-1.19-2.82-6.69-15.31-6.69-15.31S234.79,60.14,230,62.27Z"/>
  </g>
  <g id="technology">
    <!-- <rect x="100" y="10" width="80" height="80"/> -->
    <path fill="#005a96" d="M173.38,45v6.61c0,.45-.37.82-.82.82h-6.99v17.61c0,.7-.44,1.32-1.1,1.55l-15.75,5.52v7.07c0,.45-.37.82-.82.82h-15.82c-.45,0-.82-.37-.82-.82v-7.07l-15.75-5.52c-.66-.23-1.1-.85-1.1-1.55v-17.61h-6.99c-.45,0-.82-.37-.82-.82v-6.61h2.05v5.38h7.81v19.37l16.84,5.91v7.29h13.37v-7.29l16.84-5.91v-19.37h7.81v-5.38h2.05ZM168.94,45.04h-57.88v2.87h57.88v-2.87ZM135.66,80.61v-6.37l-16.84-5.9c0-10.33-.03-14.82-.03-17.59h42.43c0,4.08-.03,5.95-.03,17.59l-16.84,5.9v6.37h-8.69ZM136.4,64.08c-.02-.35-.31-.61-.66-.6-.35.02-.61.31-.6.66.02.35.31.61.66.6s.61-.31.6-.66ZM144.14,69.98c-.58-.08-1.11.32-1.19.9-.08.58.32,1.11.9,1.19.58.08,1.11-.32,1.19-.9.08-.57-.32-1.11-.9-1.18ZM144.11,67.14c.35.05.66-.19.71-.54.05-.34-.19-.66-.54-.71-.34-.05-.66.19-.71.54-.05.34.19.66.54.71ZM146.81,62.93c.05-.34-.2-.66-.54-.71-.34-.05-.66.19-.71.54-.05.34.2.66.54.71.34.05.66-.2.71-.54ZM147.67,66.99c-.57-.08-1.11.32-1.18.9-.08.58.32,1.11.9,1.19.57.08,1.11-.32,1.18-.9.08-.58-.32-1.11-.9-1.19ZM149.81,63.77c-.34-.05-.66.19-.71.54-.05.35.19.66.54.71.35.05.66-.19.71-.54.05-.34-.19-.66-.54-.71ZM152.47,61.43c.05-.34-.19-.66-.54-.71-.35-.05-.66.19-.71.54-.05.35.19.66.54.71.34.05.66-.19.71-.54ZM153.19,66.98c-.57-.08-1.11.32-1.18.9-.08.58.32,1.11.9,1.19.58.08,1.11-.32,1.19-.9.08-.57-.32-1.11-.9-1.18ZM154.73,63.51c-.34-.05-.66.19-.71.54-.05.34.19.66.54.71.34.05.66-.2.71-.54.05-.34-.2-.66-.54-.71ZM156.43,60.38c.35.05.66-.19.71-.54.05-.35-.19-.66-.54-.71-.35-.05-.66.19-.71.54-.05.34.19.66.54.71ZM157.61,65.18c-.57-.08-1.11.32-1.18.9-.08.57.32,1.11.9,1.18.57.08,1.11-.32,1.18-.9.08-.57-.32-1.11-.9-1.18ZM159.47,61.44c-.34-.05-.66.19-.71.54-.05.34.19.66.54.71.35.05.66-.19.71-.54.05-.35-.19-.66-.54-.71ZM138.29,78.25h3.42v-22.77h18.28v-3.5h-39.98v3.5h18.28v22.77ZM133.92,60.57c-.35.02-.61.31-.6.66.02.35.31.62.66.6.35-.02.62-.31.6-.66-.02-.35-.31-.62-.66-.6ZM121.88,61.51c.35-.02.61-.31.6-.66-.02-.35-.31-.62-.66-.6-.35.02-.61.31-.6.66.02.35.31.62.66.6ZM123.59,66.37c-.03-.58-.52-1.03-1.1-1-.58.02-1.03.52-1,1.1.03.58.52,1.03,1.1,1,.58-.03,1.03-.52,1-1.1ZM125.12,62.78c-.02-.35-.31-.62-.66-.6-.35.02-.62.31-.6.66.02.35.31.62.66.6.35-.02.62-.31.6-.66ZM127.78,66.35c-.02-.58-.52-1.03-1.1-1-.58.03-1.03.52-1,1.1.03.58.52,1.03,1.1,1,.58-.03,1.03-.52,1-1.1ZM128.15,60.85c-.02-.35-.31-.62-.66-.6s-.62.31-.6.66c.02.35.31.62.66.6.35-.02.62-.31.6-.66ZM131,69.16c-.03-.58-.52-1.03-1.1-1-.58.03-1.03.52-1,1.1.02.58.52,1.03,1.1,1,.58-.03,1.03-.52,1-1.1ZM131.35,63.27c-.02-.35-.31-.61-.66-.6-.35.02-.62.31-.6.66.02.35.31.62.66.6.35-.02.62-.32.6-.66ZM133.63,67.71c.58-.03,1.03-.52,1-1.1-.03-.58-.52-1.03-1.1-1-.58.02-1.03.52-1,1.1.03.58.52,1.03,1.1,1ZM136.05,69.98c-.03-.58-.52-1.03-1.1-1-.58.03-1.03.52-1,1.1.03.58.52,1.03,1.1,1,.58-.03,1.03-.52,1-1.1Z" />
  </g>
  <g id="industry">
    <!-- <rect x="10" y="10" width="80" height="80"/> -->
    <path fill="#005a96" d="M73.28,55.22a1.75,1.75,0,0,0-1.73,0L62,61.12V56.75a1.68,1.68,0,0,0-.92-1.53,1.75,1.75,0,0,0-1.73,0l-9.56,5.9V56.75a1.68,1.68,0,0,0-.92-1.53,1.75,1.75,0,0,0-1.73,0L37,61.42l-.71-24.69a1.69,1.69,0,0,0-1.73-1.63L28.85,35a1.69,1.69,0,0,0-1.73,1.63L25.8,83.27A1.74,1.74,0,0,0,27.53,85H72.47a1.78,1.78,0,0,0,1.73-1.73V56.44A1.94,1.94,0,0,0,73.28,55.22ZM45.17,71.59a1,1,0,0,1-1,1H39.88a1,1,0,0,1-1-1V67.52a1,1,0,0,1,1-1h4.27a1,1,0,0,1,1,1Zm12.4,0a1,1,0,0,1-1,1H52.29a1,1,0,0,1-1-1V67.52a1,1,0,0,1,1-1h4.27a1,1,0,0,1,1,1Zm12,0a1,1,0,0,1-1,1H64.28a1,1,0,0,1-1-1V67.52a1,1,0,0,1,1-1h4.27a1,1,0,0,1,1,1Z"/>
  </g>
</svg>
