<svg xmlns="http://www.w3.org/2000/svg" viewBox="0 0 64 64">
  <g fill="#525252">
    <path d="M32,18.5L32,18.5c-1.2,0-2.1-1-2.1-2.1v-6.2C29.9,9,30.8,8,32,8h0c1.2,0,2.1,1,2.1,2.1v6.2C34.1,17.5,33.2,18.5,32,18.5z"/>
    <path d="M38.8,20.3L38.8,20.3c-0.4-0.2-0.5-0.7-0.3-1l4.5-7.8c0.2-0.4,0.7-0.5,1-0.3l0,0c0.4,0.2,0.5,0.7,0.3,1L39.8,20C39.6,20.4,39.1,20.5,38.8,20.3z"/>
    <path d="M43.7,25.2L43.7,25.2c-0.2-0.4-0.1-1,0.3-1.2l7.5-4.4c0.4-0.2,1-0.1,1.2,0.3v0c0.2,0.4,0.1,1-0.3,1.2l-7.5,4.4C44.5,25.8,44,25.6,43.7,25.2z"/>
    <path d="M55,33h-8.5c-0.6,0-1-0.4-1-1v0c0-0.6,0.4-1,1-1H55c0.6,0,1,0.4,1,1v0C56,32.6,55.6,33,55,33z"/>
    <path d="M51.2,44.4l-7.1-4.1c-0.5-0.3-0.7-1-0.4-1.5v0c0.3-0.5,1-0.7,1.5-0.4l7.1,4.1c0.5,0.3,0.7,1,0.4,1.5h0C52.5,44.5,51.8,44.7,51.2,44.4z"/>
    <path d="M42.3,52.3l-4-6.9c-0.3-0.6-0.1-1.4,0.5-1.7l0,0c0.6-0.3,1.4-0.1,1.7,0.5l4,6.9c0.3,0.6,0.1,1.4-0.5,1.7h0C43.4,53.1,42.6,52.9,42.3,52.3z"/>
    <path d="M32,56L32,56c-0.8,0-1.4-0.6-1.4-1.4v-7.7c0-0.8,0.6-1.4,1.4-1.4h0c0.8,0,1.4,0.6,1.4,1.4v7.7C33.4,55.4,32.8,56,32,56z"/>
    <path d="M20,52.8L20,52.8c-0.7-0.4-1-1.3-0.5-2l3.7-6.5c0.4-0.7,1.3-1,2-0.5l0,0c0.7,0.4,1,1.3,0.5,2L22,52.2C21.6,53,20.7,53.2,20,52.8z"/>
    <path d="M11.2,44L11.2,44c-0.4-0.8-0.2-1.8,0.6-2.2l6.2-3.6c0.8-0.4,1.8-0.2,2.2,0.6l0,0c0.4,0.8,0.2,1.8-0.6,2.2l-6.2,3.6C12.7,45,11.7,44.8,11.2,44z"/>
    <path d="M16.7,33.8h-7C8.8,33.8,8,33,8,32v0c0-1,0.8-1.7,1.7-1.7h7c1,0,1.7,0.8,1.7,1.7v0C18.5,33,17.7,33.8,16.7,33.8z"/>
    <path d="M17.7,25.9l-5.8-3.4C11,22,10.7,20.9,11.2,20l0,0c0.5-0.9,1.7-1.2,2.6-0.7l5.8,3.4c0.9,0.5,1.2,1.7,0.7,2.6l0,0C19.8,26.1,18.6,26.4,17.7,25.9z"/>
    <path d="M22.5,19.5l-3.2-5.6c-0.6-1-0.2-2.2,0.7-2.7l0,0c1-0.6,2.2-0.2,2.7,0.7l3.2,5.6c0.6,1,0.2,2.2-0.7,2.7l0,0C24.3,20.8,23,20.5,22.5,19.5z"/>
  </g>
</svg>
